<svg width="24" height="24" viewBox="0 0 24 24" fill="none" xmlns="http://www.w3.org/2000/svg">
<path d="M12 20.3999L11.616 19.9679C11.376 19.7279 5.76001 13.1039 5.76001 9.11988C5.76001 5.66388 8.54401 2.87988 12 2.87988C15.456 2.87988 18.24 5.66388 18.24 9.11988C18.24 13.1039 12.624 19.7279 12.384 20.0159L12 20.3999ZM12 3.83988C9.07201 3.83988 6.72001 6.19188 6.72001 9.11988C6.72001 12.1919 10.752 17.3759 12 18.9119C13.248 17.3759 17.28 12.1919 17.28 9.11988C17.28 6.19188 14.928 3.83988 12 3.83988Z" fill="black"/>
<path d="M12.0001 11.52C10.6561 11.52 9.6001 10.464 9.6001 9.11997C9.6001 7.77597 10.6561 6.71997 12.0001 6.71997C13.3441 6.71997 14.4001 7.77597 14.4001 9.11997C14.4001 10.464 13.3441 11.52 12.0001 11.52ZM12.0001 7.67997C11.1841 7.67997 10.5601 8.30397 10.5601 9.11997C10.5601 9.93597 11.1841 10.56 12.0001 10.56C12.8161 10.56 13.4401 9.93597 13.4401 9.11997C13.4401 8.30397 12.8161 7.67997 12.0001 7.67997Z" fill="black"/>
</svg>
