<svg width="30" height="28" viewBox="0 0 30 28" fill="none" xmlns="http://www.w3.org/2000/svg">
<path d="M16.542 0.00172249C17.6366 -0.00219768 18.7311 0.00806973 19.8253 0.0325215L20.1163 0.0423212C20.4523 0.0535208 20.7838 0.0675203 21.1843 0.0843197C22.7802 0.154317 23.8691 0.38951 24.8246 0.735298C25.8145 1.09089 26.6485 1.57247 27.4825 2.35084C28.245 3.05027 28.8351 3.89631 29.2119 4.83016C29.5823 5.72193 29.8343 6.73969 29.9093 8.22924C29.9273 8.60163 29.9423 8.91242 29.9543 9.22601L29.9633 9.4976C29.99 10.5184 30.0015 11.5396 29.9978 12.5607L29.9993 13.6051V15.439C30.003 16.4606 29.9915 17.4822 29.9648 18.5035L29.9558 18.7751C29.9438 19.0887 29.9288 19.3981 29.9108 19.7718C29.8358 21.2614 29.5808 22.2778 29.2119 23.1695C28.8364 24.1044 28.2461 24.9511 27.4825 25.6502C26.7324 26.3619 25.8255 26.9127 24.8246 27.2644C23.8691 27.6102 22.7802 27.8454 21.1843 27.9154C20.7838 27.9322 20.4523 27.9462 20.1163 27.9574L19.8253 27.9658C18.7311 27.9907 17.6366 28.0014 16.542 27.998L15.4231 27.9994H13.4597C12.3651 28.0028 11.2706 27.9921 10.1763 27.9672L9.88536 27.9588C9.52929 27.9467 9.1733 27.9327 8.81741 27.9168C7.22149 27.8468 6.13255 27.6088 5.1756 27.2644C4.17468 26.9135 3.26805 26.3626 2.51924 25.6502C1.75584 24.9507 1.16514 24.1041 0.788325 23.1695C0.417844 22.2778 0.165857 21.2614 0.0908607 19.7718C0.074156 19.4397 0.0591566 19.1074 0.0458631 18.7751L0.0383637 18.5035C0.0107105 17.4822 -0.00179023 16.4606 0.000865457 15.439V12.5607C-0.00332078 11.5396 0.00767983 10.5184 0.0338639 9.4976L0.0443633 9.22601C0.0563627 8.91242 0.0713618 8.60163 0.0893609 8.22924C0.164357 6.73829 0.416344 5.72333 0.786825 4.83016C1.16386 3.89586 1.75572 3.05004 2.52074 2.35224C3.26904 1.63932 4.17509 1.08749 5.1756 0.735298C6.13255 0.38951 7.21999 0.154317 8.81741 0.0843197L9.88536 0.0423212L10.1763 0.0353216C11.2701 0.0095244 12.3641 -0.00214312 13.4582 0.000322644L16.542 0.00172249ZM15.0001 7.00148C14.0064 6.98837 13.0198 7.15971 12.0977 7.50556C11.1756 7.85141 10.3363 8.36487 9.62864 9.01609C8.92097 9.66732 8.35904 10.4433 7.97549 11.299C7.59194 12.1547 7.39442 13.073 7.39442 14.0005C7.39442 14.9281 7.59194 15.8464 7.97549 16.7021C8.35904 17.5578 8.92097 18.3338 9.62864 18.985C10.3363 19.6362 11.1756 20.1497 12.0977 20.4955C13.0198 20.8414 14.0064 21.0127 15.0001 20.9996C16.9891 20.9996 18.8967 20.2621 20.3031 18.9494C21.7096 17.6367 22.4997 15.8563 22.4997 13.9998C22.4997 12.1434 21.7096 10.363 20.3031 9.05027C18.8967 7.73756 16.9891 7.00148 15.0001 7.00148ZM15.0001 9.80139C15.5978 9.79111 16.1918 9.8921 16.7472 10.0985C17.3026 10.3048 17.8085 10.6124 18.2351 11.0033C18.6617 11.3942 19.0007 11.8605 19.232 12.375C19.4634 12.8895 19.5827 13.4418 19.5828 13.9998C19.5829 14.5578 19.4638 15.1102 19.2326 15.6248C19.0014 16.1394 18.6627 16.6058 18.2362 16.9968C17.8097 17.3878 17.304 17.6955 16.7486 17.9021C16.1932 18.1086 15.5993 18.2098 15.0016 18.1997C13.8082 18.1997 12.6636 17.7572 11.8198 16.9696C10.9759 16.182 10.5018 15.1137 10.5018 13.9998C10.5018 12.886 10.9759 11.8177 11.8198 11.0301C12.6636 10.2425 13.8082 9.79999 15.0016 9.79999L15.0001 9.80139ZM22.8747 4.90156C22.3908 4.91963 21.9332 5.11176 21.5977 5.4377C21.2621 5.76364 21.0748 6.1981 21.0748 6.6501C21.0748 7.10209 21.2621 7.53656 21.5977 7.86249C21.9332 8.18843 22.3908 8.38056 22.8747 8.39864C23.3719 8.39864 23.8488 8.21427 24.2004 7.88609C24.5521 7.55791 24.7496 7.11281 24.7496 6.6487C24.7496 6.18458 24.5521 5.73948 24.2004 5.4113C23.8488 5.08312 23.3719 4.89876 22.8747 4.89876V4.90156Z" fill="black"/>
</svg>
