<svg xmlns="http://www.w3.org/2000/svg" width="2136.242" height="1905.209" viewBox="0 0 2136.242 1905.209">
  <g id="Group_1" data-name="Group 1" transform="translate(-0.029 0.209)">
    <path id="path37" d="M946,1055c9,90,14,136-59,213-76,80-266,227-460,339-82,48-193,105-277,135-62,23-114,32-140-13-17-29-9-56,0-79,68-183,262-526,389-748,13-23,27-46,40-70C635,495,894,82,945,16c7-10,21-21,33-14,10,6,10,18,9,27a131.783,131.783,0,0,1-5,18C899,388,908,722,946,1055Z" fill="#00a3e0"/>
    <path id="path39" d="M1232,1160c-82-38-125-57-155-159-31-105-64-343-64-568,0-94,6-218,21-306,12-66,30-116,82-116,34,0,53,21,69,40,125,150,323,490,453,712,13,22,26,45,40,69,194,338,422,769,454,846,5,11,8,28-5,36-10,5-20-1-27-6l-13-13C1833,1452,1540,1293,1232,1160Z" fill="#00a3e0"/>
    <path id="path41" d="M998,1354c74-52,112-79,215-55,106,26,329,117,524,229,81,47,186,115,255,172,50,43,85,83,59,128-17,29-44,36-69,40-193,33-587,35-843,37h-80c-390-1-877-19-960-30-12-1-28-7-28-22,0-11,10-18,18-21,2,0,14-4,18-5C444,1729,729,1555,998,1354Z" fill="#00a3e0"/>
  </g>
</svg>
