<svg width="33" height="33" viewBox="0 0 33 33" fill="none" xmlns="http://www.w3.org/2000/svg">
<path d="M26.792 27.7117L18.1817 19.1015C17.4942 19.6872 16.7036 20.1405 15.8098 20.4614C14.9161 20.7822 14.0178 20.9426 13.1148 20.9426C10.913 20.9426 9.04942 20.1804 7.52408 18.656C5.99875 17.1307 5.23608 15.2675 5.23608 13.0666C5.23608 10.8657 5.99783 9.00166 7.52133 7.4745C9.04575 5.94641 10.9084 5.18237 13.1093 5.18237C15.3112 5.18237 17.1757 5.94504 18.7028 7.47037C20.23 8.99571 20.9936 10.8597 20.9936 13.0625C20.9936 14.0177 20.8245 14.9421 20.4862 15.8359C20.147 16.7296 19.7025 17.4941 19.1525 18.1294L27.7627 26.7382L26.7906 27.7117H26.792ZM13.1148 19.5662C14.939 19.5662 16.4795 18.9383 17.7362 17.6825C18.992 16.4267 19.62 14.8862 19.62 13.0611C19.62 11.237 18.992 9.69696 17.7362 8.44112C16.4804 7.18529 14.9404 6.55737 13.1162 6.55737C11.292 6.55737 9.75158 7.18529 8.49483 8.44112C7.239 9.69696 6.61108 11.237 6.61108 13.0611C6.61108 14.8853 7.239 16.4253 8.49483 17.6811C9.75067 18.937 11.2907 19.5662 13.1148 19.5662Z" fill="black"/>
</svg>
